<svg width="52" height="35" viewBox="0 0 52 35" fill="none" xmlns="http://www.w3.org/2000/svg">
<path d="M38.3892 25.4495C39.1836 25.2437 39.7233 25.2229 40.4566 25.3773C41.8012 25.6656 42.9836 26.6028 43.605 27.89C43.941 28.5795 43.9507 28.6519 43.9507 29.7943C43.9507 30.9166 43.9301 31.02 43.6245 31.679C42.2697 34.5723 38.603 35.2211 36.3824 32.9661C35.7304 32.3072 35.2924 31.432 35.1294 30.4847C34.7627 28.2812 36.2296 26.0262 38.3892 25.4495Z" fill="white"/>
<path d="M8.80716 25.4085C12.403 24.523 15.429 28.3122 13.8501 31.7308C12.3833 34.8918 8.07399 35.2212 6.10794 32.3177C5.44589 31.3293 5.19118 29.8259 5.49661 28.6624C5.91424 27.0768 7.20799 25.7999 8.80716 25.4085Z" fill="white"/>
<path fill-rule="evenodd" clip-rule="evenodd" d="M21.6929 15.3275C24.9525 15.3687 26.0736 15.4818 27.5913 15.9554C29.2619 16.4702 31.9818 17.7784 34.6812 19.3538C35.7098 19.9509 35.8933 20.0232 36.8199 20.1673C39.3561 20.5791 40.9354 20.8979 42.7281 21.3509C45.5492 22.0715 48.1671 22.8749 48.6568 23.1634C49.5735 23.6988 50.0732 25.3669 49.9917 27.6527C49.951 28.8262 49.9001 29.1356 49.6558 29.8148C49.0955 31.349 48.5447 31.7509 46.813 31.8333L45.7027 31.8851L45.7642 31.638C46.5893 28.6004 45.234 25.3773 42.5142 23.9564C41.4855 23.4108 40.6502 23.2044 39.4585 23.2044C37.5537 23.2044 36.1883 23.7714 34.8335 25.1614C33.8457 26.1601 33.3059 27.1176 33.0513 28.3118C32.8679 29.2077 32.8576 30.516 33.0308 31.2161C33.112 31.5035 33.1527 31.77 33.1226 31.8021C33.0919 31.833 29.2209 31.8538 24.5249 31.8538C16.4269 31.8538 15.9789 31.8433 16.0298 31.6683C16.4982 30.1651 16.3245 28.3739 15.5708 26.8089C14.7458 25.1306 13.0858 23.7917 11.3033 23.3695C10.4578 23.1635 8.99054 23.1635 8.14505 23.3695C4.80398 24.1624 2.58338 27.6946 3.29642 31.1234L3.42923 31.7718L2.99075 31.72C1.96194 31.6067 0.79037 30.7214 0.321808 29.6917C0.0977304 29.2181 0.0467024 28.94 0.016144 27.931C-0.0246016 26.7983 -0.0140652 26.6747 0.362824 25.3568C0.821198 23.6887 0.862036 22.8133 0.52591 21.7425C0.220318 20.8158 0.230771 20.424 0.566925 20.1048C0.811019 19.8685 0.903708 19.8584 2.57278 19.807C4.50814 19.7452 4.56985 19.7244 5.80228 18.8802C7.29969 17.8505 10.1521 16.7175 12.6275 16.1614C13.9007 15.8835 16.1923 15.5234 17.7202 15.3792C18.2499 15.338 20.0428 15.3069 21.6929 15.3275ZM17.4351 17.6546C15.8358 17.7782 13.7371 18.1183 12.1685 18.5198C11.3978 18.7146 10.7381 18.8989 10.7124 18.931C10.6515 18.9826 11.6394 20.3015 12.1079 20.806C12.3827 21.094 12.4951 21.1354 13.1568 21.1868C14.0328 21.2692 18.1285 21.4544 18.9536 21.4544H19.524L19.1265 19.6214C18.9128 18.6239 18.7189 17.7394 18.688 17.6654C18.6676 17.6036 18.6067 17.5521 18.5659 17.5521C18.5237 17.5625 18.0046 17.6032 17.4351 17.6546ZM20.8072 17.6546C20.8887 17.9637 21.5912 21.351 21.5913 21.4134C21.609 21.4339 24.1184 21.4544 27.1939 21.4544C32.5722 21.4544 33.3061 21.413 33.3062 21.1556C33.3062 21.1144 32.786 20.8055 32.1646 20.4554C29.0783 18.7566 27.3466 18.0663 25.2076 17.6956C24.7083 17.603 23.4959 17.5 22.5181 17.4691L20.7456 17.4075L20.8072 17.6546Z" fill="white"/>
<path fill-rule="evenodd" clip-rule="evenodd" d="M42.1949 4.61653C42.5538 4.62236 43.2612 4.72192 44.3159 4.9134C45.3869 5.09569 46.3069 5.29647 47.0757 5.51692C48.8573 6.02776 50.0899 6.81095 50.772 7.86653C51.4706 8.91287 51.5661 10.3207 51.0591 12.0892C50.6438 13.5374 50.0016 14.8588 49.1324 16.0521C48.2796 17.2362 47.2288 18.1419 45.981 18.7689C44.7369 19.383 43.4736 19.5065 42.1919 19.139C41.4486 18.9258 40.7145 18.583 39.9898 18.1116C39.2756 18.0871 38.6683 18.003 38.1685 17.8597C37.6819 17.7202 37.3523 17.6125 37.1802 17.5355C37.4868 16.805 38.4206 14.9988 39.982 12.1175C41.5598 9.22711 42.4073 7.57647 42.5249 7.16633C42.6461 6.74348 42.6611 6.35246 42.5699 5.99348C42.4914 5.63821 42.3894 5.36579 42.2632 5.17707L42.0542 4.88899L42.1949 4.61653ZM46.023 6.65071C45.5053 7.97249 44.5703 9.85444 43.2183 12.2962C41.8829 14.7286 41.0609 16.2894 40.7525 16.9779C41.016 17.2198 41.4165 17.4183 41.9546 17.5726C42.4929 17.7269 43.0603 17.6603 43.6558 17.3734C44.2676 17.0773 44.8131 16.6512 45.2915 16.095C45.77 15.5388 46.2316 14.8944 46.6773 14.1624C47.4569 12.8463 48.0147 11.6051 48.3492 10.4388C48.6836 9.27246 48.755 8.44006 48.565 7.94172C48.3786 7.43061 47.9205 7.07014 47.19 6.86067C46.8568 6.76515 46.4678 6.69508 46.023 6.65071Z" fill="white"/>
<path fill-rule="evenodd" clip-rule="evenodd" d="M10.4517 0.0608621C11.5475 -0.0931438 12.4824 0.0452116 13.2564 0.474925C14.0417 0.889659 14.5006 1.56579 14.6324 2.50324C14.8865 4.31199 13.9604 5.72113 11.854 6.73078C12.7532 6.71216 13.5396 6.94506 14.2134 7.42903C14.8987 7.89822 15.3137 8.64184 15.4566 9.65852C15.6309 10.8993 15.3236 11.9723 14.5357 12.8773C13.7473 13.7825 12.6657 14.3317 11.2925 14.5247C10.5796 14.6249 9.65676 14.6201 8.52396 14.5101C7.86346 14.7914 7.23619 14.9744 6.64212 15.0579C6.04796 15.1414 5.70105 15.1695 5.60306 15.1429C5.58414 14.3377 5.70021 12.3353 5.95071 9.13606C6.21255 5.9219 6.2876 3.91863 6.1763 3.12629C6.15404 2.96792 6.03918 2.76844 5.8306 2.52864C5.62184 2.28869 5.41787 2.0878 5.22025 1.92707L4.92435 1.68684L4.94193 1.38117C6.62148 0.781597 8.45797 0.341062 10.4517 0.0608621ZM12.3277 9.67414C12.1013 8.06349 11.3084 7.35336 9.94876 7.54426C9.57914 7.59621 9.25336 7.67573 8.9722 7.78254C8.75703 10.3709 8.63991 12.1714 8.62064 13.1839C8.98226 13.3618 9.51286 13.4014 10.2124 13.3031C10.9254 13.2028 11.4937 12.8402 11.9175 12.2152C12.3393 11.577 12.476 10.7301 12.3277 9.67414ZM10.2085 1.34797C9.70679 1.41849 9.41589 1.50623 9.33646 1.61164C9.31861 2.82588 9.23412 4.42647 9.08255 6.4134C9.61043 6.33921 9.97525 6.25417 10.1773 6.15852C10.3791 6.06286 10.5523 5.95137 10.6958 5.82356C10.8526 5.69381 11.021 5.50154 11.2007 5.24739C11.5942 4.69391 11.7163 3.8823 11.5659 2.81282C11.4138 1.73026 10.9611 1.24224 10.2085 1.34797Z" fill="white"/>
<path fill-rule="evenodd" clip-rule="evenodd" d="M30.1304 0.598948C30.8006 0.437415 31.4332 1.08655 31.4449 1.94953C31.4467 2.11891 31.4693 2.16107 31.6392 2.34016C31.8906 2.60666 32.1357 3.01444 32.2388 3.34407C32.2863 3.49039 32.3365 3.60974 32.3521 3.61164C32.3715 3.61369 32.4536 3.57841 32.5406 3.53645C32.8444 3.37947 33.0552 3.36287 33.7115 3.44758L34.314 3.52278L34.4527 3.65949C34.7195 3.92746 34.7273 3.96764 34.6343 4.96516L34.5523 5.85774L34.4292 6.05696C34.339 6.20471 34.2562 6.2789 34.1284 6.33625C33.9672 6.40983 33.9113 6.41176 33.5181 6.37043C33.2791 6.34532 33.0843 6.33677 33.0796 6.34797C33.078 6.36354 33.2983 6.92639 33.5659 7.59992L34.0552 8.82453L34.4839 8.86946C35.0054 8.92429 35.3888 9.05529 35.8169 9.32453C36.3852 9.68331 36.7921 10.194 37.0337 10.8529C37.3918 11.8272 37.2418 12.8864 36.6265 13.723C36.3834 14.0516 35.8237 14.5047 35.4517 14.6741C34.9064 14.9198 34.1646 15.0142 33.6177 14.9017C32.3349 14.637 31.4486 13.7451 31.1802 12.4417C31.0917 12.0113 31.1489 11.2813 31.3033 10.8607C31.4576 10.4403 31.6934 10.0678 32.024 9.72883L32.2925 9.45735L32.0904 8.90852L31.8843 8.3636L30.6929 8.2386L30.7271 8.5843C30.8237 9.57444 30.8218 10.0116 30.7183 10.9964C30.6279 11.8564 30.6068 11.9803 30.4995 12.2523C30.2518 12.8872 29.8743 13.2958 29.439 13.3958C29.2249 13.4481 24.9714 13.3277 24.8042 13.2669C24.6868 13.2231 24.6124 12.9951 24.6812 12.8646C24.7763 12.6701 24.789 12.6712 27.0865 12.7474C29.231 12.8193 29.2552 12.8179 29.4175 12.7327C29.6007 12.6379 29.7679 12.4308 29.8941 12.1292C30.0139 11.8501 30.1692 10.7139 30.1685 10.0843C30.1729 9.59284 30.1168 8.59146 30.0777 8.32746L30.0503 8.17121L28.0962 7.96614C27.0221 7.85325 25.7633 7.74011 25.3013 7.71516C24.8399 7.68634 24.1631 7.64232 23.7964 7.61164L23.1333 7.55403L22.8482 7.94563L22.5591 8.33625L22.8052 8.66145C22.9879 8.90469 23.0831 9.08016 23.189 9.38215L23.3326 9.78352L24.4917 9.90852L25.648 10.0306L25.7261 9.29035C25.8033 8.55574 25.8038 8.54715 25.9107 8.46418C25.9669 8.41507 26.0534 8.38085 26.104 8.38606C26.2247 8.39874 29.5515 9.21659 29.6382 9.25325C29.6797 9.26966 29.7273 9.3416 29.7476 9.41047C29.7789 9.52397 29.7437 9.70221 29.4644 10.8255C29.2879 11.5309 29.1211 12.1469 29.0894 12.1868C29.0612 12.231 29.0059 12.2725 28.9693 12.2845C28.9369 12.2929 27.6043 12.1643 26.0161 11.9974L23.1275 11.6937L23.062 11.8323C23.0262 11.9112 22.9132 12.0846 22.8159 12.2239C22.1501 13.1299 21.1464 13.5829 20.0523 13.472C19.5969 13.4241 19.3023 13.3388 18.9439 13.1556C18.071 12.6978 17.4808 11.8717 17.3238 10.8948C17.2596 10.4946 17.3239 9.80901 17.4624 9.4261C17.5904 9.06961 17.9205 8.54481 18.1968 8.27473C18.8168 7.65514 19.701 7.33555 20.5835 7.40071L20.9312 7.42512L21.1617 7.10676C21.2894 6.93258 21.3878 6.77877 21.3784 6.76789C21.368 6.75499 21.0938 6.62734 20.7661 6.48664C20.1453 6.21678 19.9309 6.07991 19.3345 5.57649C18.76 5.09119 18.4951 4.68951 18.5298 4.35871C18.59 3.78652 19.3216 3.64327 20.8726 3.90071C21.2594 3.96498 21.8421 4.08092 22.1685 4.15852C22.7404 4.29337 22.7708 4.30471 23.1773 4.55598C24.1564 5.16263 25.118 5.48815 26.3208 5.61457L26.9009 5.67512L27.2232 5.44953C27.7969 5.04548 28.3238 4.82944 28.9956 4.72688C29.3161 4.67397 29.4699 4.67413 29.9253 4.72199C30.2949 4.76084 30.5614 4.80819 30.7515 4.87141L31.0327 4.96418L31.3599 4.89289L31.6861 4.82063L31.7271 4.39192C31.7692 3.91624 31.7236 3.63606 31.5513 3.29133C31.4572 3.10502 31.2928 2.88383 31.2652 2.91047C31.2605 2.91785 31.2079 3.00361 31.1509 3.09602C30.8217 3.64361 30.2181 3.84376 29.7437 3.56574C29.4808 3.40824 29.2961 3.17962 29.1909 2.86946C28.9712 2.22853 29.0956 1.49784 29.5093 1.00617C29.6942 0.78177 29.8797 0.663089 30.1304 0.598948ZM35.1509 9.67121C34.873 9.54365 34.3318 9.41264 34.3257 9.47102C34.3246 9.49256 34.3828 9.65084 34.4576 9.83039L34.5894 10.1517L34.8521 10.2659C35.4501 10.5295 35.8328 11.0141 35.9283 11.6419C36.1249 12.9535 34.804 14.0229 33.562 13.5579C33.2442 13.438 33.0146 13.2643 32.7964 12.9818C32.339 12.3906 32.2915 11.6065 32.6763 10.9779L32.8189 10.7445L32.6841 10.4114L32.5503 10.0784L32.4136 10.2142C32.2302 10.3877 32.0038 10.7494 31.8999 11.0257C31.7953 11.3099 31.7301 11.9252 31.773 12.2288C31.9082 13.1522 32.5732 13.9418 33.4419 14.2142C33.8117 14.3278 34.0181 14.3498 34.396 14.3109C35.5174 14.2004 36.3895 13.3943 36.5757 12.2962C36.6976 11.5851 36.5293 10.9731 36.063 10.3929C35.7526 10.014 35.5527 9.85511 35.1509 9.67121ZM34.7896 10.9359C34.1541 10.5427 33.366 10.8185 33.1031 11.5228C32.9981 11.8107 33.0074 12.0953 33.1353 12.3763C33.3527 12.8554 33.9097 13.1344 34.4292 13.0198C34.7275 12.9528 35.0936 12.6561 35.2212 12.3782C35.4521 11.8634 35.2623 11.2295 34.7896 10.9359ZM20.1529 8.01985C19.2931 8.07509 18.4503 8.67958 18.0972 9.4925C17.9459 9.84655 17.8645 10.5427 17.94 10.8734C18.1583 11.829 18.751 12.4856 19.6577 12.7698C20.797 13.1255 21.9817 12.5962 22.5357 11.4818C22.6308 11.2873 22.6748 11.1345 22.7212 10.805C22.7982 10.2976 22.7685 9.97586 22.6109 9.56575C22.5125 9.30352 22.2571 8.88659 22.187 8.87922C22.1701 8.87982 22.0718 8.99502 21.9673 9.13606L21.7788 9.39582L21.8814 9.57942C22.2935 10.339 22.1293 11.2311 21.4683 11.7913C20.9754 12.2118 20.341 12.3302 19.7505 12.1068C18.645 11.6914 18.2263 10.3914 18.8902 9.43C19.0573 9.18792 19.4882 8.87164 19.7652 8.78254C19.9813 8.7108 20.0117 8.69046 20.2329 8.38313C20.362 8.20384 20.4608 8.04462 20.4585 8.02864C20.4516 8.01239 20.3147 8.00943 20.1529 8.01985ZM26.4087 9.08723C26.3893 9.08518 26.3226 9.60129 26.2564 10.2318L26.1363 11.3802L26.3892 11.4066C26.6847 11.4377 26.627 11.5337 26.8677 10.5911C26.9615 10.2233 27.0657 9.87598 27.0913 9.81965C27.1903 9.62974 27.4875 9.64556 27.6079 9.847C27.6711 9.95565 27.67 9.96468 27.4927 10.6419C27.398 11.0205 27.303 11.3638 27.2857 11.4144C27.2572 11.498 27.2646 11.5029 27.4449 11.5101L27.6363 11.5189L27.8423 10.7171C28.0126 10.0702 28.07 9.90661 28.1392 9.847C28.2554 9.75336 28.4489 9.78179 28.5611 9.91145C28.6629 10.0284 28.6622 10.0363 28.4019 11.0159L28.2495 11.6029L28.4361 11.6224C28.5412 11.6334 28.6276 11.6341 28.6284 11.6263C28.6313 11.6106 28.7387 11.1888 28.8658 10.6839C28.9933 10.1749 29.0957 9.75554 29.0943 9.74348C29.0873 9.73488 28.4883 9.58942 27.7593 9.41047C27.0347 9.23656 26.4316 9.09066 26.4087 9.08723ZM20.9253 9.47102C20.2209 9.05851 19.3692 9.44563 19.2183 10.2445C19.1535 10.5995 19.2255 10.855 19.4654 11.1556C19.7095 11.4526 19.9443 11.5759 20.3052 11.5863C21.1062 11.6035 21.6774 10.8447 21.4253 10.098C21.329 9.81659 21.1662 9.61043 20.9253 9.47102ZM23.3755 10.7562L23.3413 11.0863L25.5132 11.3148L25.5474 10.9837L25.5826 10.6536L23.4107 10.4251L23.3755 10.7562ZM31.8013 5.4466C31.7108 5.44886 31.4898 5.49984 31.4624 5.52473C31.437 5.54174 33.2348 10.194 33.3159 10.3206C33.3234 10.329 33.4248 10.3001 33.5396 10.2532C33.6581 10.2107 33.7799 10.1766 33.8033 10.179C33.8303 10.1817 33.8627 10.1697 33.8765 10.1517C33.8902 10.1334 33.5387 9.2104 33.0933 8.09309C32.3489 6.23345 32.2652 6.05047 32.0962 5.8636C31.9936 5.75441 31.8898 5.61333 31.8687 5.55207C31.8434 5.49456 31.8135 5.4444 31.8013 5.4466ZM21.3736 7.86555L20.7534 8.7093L20.9868 8.805C21.1151 8.85784 21.2479 8.91017 21.2779 8.92512C21.3193 8.94465 21.4905 8.73872 21.9175 8.15461C22.2338 7.71769 22.5048 7.33832 22.5181 7.305C22.5296 7.27079 22.4488 7.2145 22.2642 7.13606L21.9898 7.01692L21.3736 7.86555ZM29.9976 5.34797C29.0242 5.21024 28.1385 5.4712 27.3687 6.1302C27.0526 6.40396 26.7264 6.81445 26.607 7.08918L26.5738 7.1761L29.0884 7.43977C30.4717 7.58516 31.5973 7.68812 31.5952 7.67219C31.593 7.65621 31.3998 7.16735 31.1695 6.58821L30.7525 5.53742L30.5786 5.47199C30.4838 5.43843 30.222 5.38338 29.9976 5.34797ZM20.3111 4.45539C19.8775 4.38621 19.1567 4.39315 19.149 4.46711C19.1439 4.51797 19.5069 4.91797 19.731 5.10676C20.382 5.65126 20.4755 5.70025 22.732 6.65754L23.5005 6.98274L25.9087 7.1341L25.9966 6.94172C26.0432 6.83642 26.1445 6.6547 26.2163 6.53254C26.2915 6.41485 26.3546 6.30344 26.357 6.28352C26.359 6.26406 26.1892 6.23042 25.979 6.20832C24.9669 6.10195 23.8276 5.70315 22.8892 5.12043C22.4867 4.8696 22.4525 4.85807 21.9331 4.74446C21.6368 4.68185 21.2055 4.59655 20.9693 4.55989C20.7371 4.52369 20.4389 4.4767 20.3111 4.45539ZM33.5611 4.05305C33.0202 3.99621 32.8519 4.02618 32.6197 4.21418C32.1121 4.62519 32.2885 5.48975 32.9175 5.68196C33.1536 5.75394 33.7564 5.81367 33.8521 5.77668C33.9262 5.74512 33.9358 5.69413 34.0103 4.98567C34.0535 4.57416 34.0806 4.20791 34.0728 4.17024C34.0586 4.11759 33.9776 4.09683 33.5611 4.05305ZM30.5777 1.32356C30.4142 1.15687 30.2612 1.15235 30.0669 1.31672C29.8463 1.50606 29.7242 1.80438 29.7134 2.16926C29.6919 2.82417 30.0387 3.23464 30.4029 2.98957C30.6529 2.81911 30.7335 2.64608 30.7818 2.18684C30.83 1.72772 30.7867 1.54223 30.5777 1.32356Z" fill="white"/>
</svg>
